<svg id="Logo_horizontal_black" xmlns="http://www.w3.org/2000/svg" width="999.775" height="169.097" viewBox="0 0 999.775 169.097">
  <path id="Path_11" data-name="Path 11" d="M319.989,492.661H300.3v77.386h19.689Zm43.969,77.386V518.694s5.249-10.008,15.421-10.008c8.531,0,15.421,4.757,15.421,15.915v45.447h19.689v-50.37c0-18.7-13.452-29.365-28.546-29.365a26.873,26.873,0,0,0-23.3,13.286V492.282H344.268v77.766h19.69Zm97.944,0V509.671h15.915v-17.39H461.9V475.708c0-9.517,6.892-13.944,13.457-13.944s12.794,4.427,12.794,13.944v94.339h19.689V474.066c0-19.2-14.11-30.025-32.483-30.025s-33.144,10.83-33.144,30.025V492.28H426.96v17.39h15.255v60.376H461.9Zm96.475,1.966c15.913,0,23.3-13.291,23.3-13.291v11.324h18.373V492.28H580.36v51.842s-5.251,9.517-15.424,9.517c-10.006,0-15.421-4.924-15.421-16.409V492.28H529.828v50.368c0,18.7,13.617,29.365,28.549,29.365m97.944,0a49.807,49.807,0,0,0,31.173-11.158l-9.845-14.763-.084.082a31.464,31.464,0,0,1-21.243,7.791c-12.3,0-20.345-8.859-21.82-15.749h58.077c.166-2.952.166-5.907.166-7.382,0-23.952-17.884-40.523-39.212-40.523-22.477,0-39.048,18.046-39.048,40.851s18.212,40.851,41.836,40.851m16.738-48.068H634.5c.655-6.892,6.4-15.754,19.031-15.754,12.961,0,19.2,9.025,19.526,15.754m53.813,46.1V518.694s5.246-10.008,15.421-10.008c8.529,0,15.421,4.757,15.421,15.915v45.447H777.4v-50.37c0-18.7-13.452-29.365-28.546-29.365a26.873,26.873,0,0,0-23.3,13.286V492.282H707.18v77.766h19.692Zm106.806,1.966a42.088,42.088,0,0,0,32.156-14.766l-12.961-13.125a22.969,22.969,0,0,1-19.2,9.517c-13.291,0-21.822-10.336-21.822-22.477s8.531-22.478,21.822-22.478a24.183,24.183,0,0,1,18.212,8.2L865.5,504.748a41.684,41.684,0,0,0-31.826-14.438c-23.3,0-41.839,17.879-41.839,40.851,0,22.8,18.54,40.852,41.839,40.852m81.538,0a49.816,49.816,0,0,0,31.175-11.158l-9.845-14.763-.084.082a31.478,31.478,0,0,1-21.246,7.791c-12.3,0-20.342-8.859-21.82-15.749h58.079c.164-2.952.164-5.907.164-7.382,0-23.952-17.882-40.523-39.212-40.523-22.477,0-39.048,18.046-39.048,40.851s18.212,40.851,41.837,40.851m16.737-48.068H893.4c.656-6.892,6.4-15.754,19.031-15.754,12.964,0,19.2,9.025,19.526,15.754m53.811,46.1V519.183s5.415-10.5,17.39-10.5a22.618,22.618,0,0,1,9.353,1.8l6.89-17.72a42.364,42.364,0,0,0-13.455-2.458c-14.435,0-21.162,13.286-21.162,13.286V492.281h-18.7v77.766Z" transform="translate(-19.622 -427.452)" fill="#292e33"/>
  <path id="Path_12" data-name="Path 12" d="M310.145,474.129a12.063,12.063,0,1,0-12.062-12.062,12.063,12.063,0,0,0,12.062,12.062" transform="translate(-19.622 -427.452)"/>
  <path id="Path_13" data-name="Path 13" d="M151.468,459.972a16.26,16.26,0,1,0-16.261-16.261,16.262,16.262,0,0,0,16.261,16.261" transform="translate(-19.622 -427.452)" fill="#e20246"/>
  <path id="Path_14" data-name="Path 14" d="M235.55,443.712a51.1,51.1,0,0,0-44.229,25.507l-22.932,39.634c-5.9,10.185-13.986,14.247-21.634,12.192a2.531,2.531,0,0,0-2.9,3.689L163.328,558.4c9.813,16.957,25.723,16.957,35.536,0L263.841,446.1l.015-.026a1.577,1.577,0,0,0-1.366-2.366H235.55Z" transform="translate(-19.622 -427.452)" fill="#e20246"/>
  <path id="Path_15" data-name="Path 15" d="M48.141,596.549c18.237,0,35.092-8.466,44.227-24.253L115.3,532.665c5.893-10.187,13.984-14.247,21.634-12.194a2.532,2.532,0,0,0,2.9-3.689l-19.478-33.66c-9.811-16.961-25.721-16.961-35.534,0L19.85,594.159l-.013.024a1.577,1.577,0,0,0,1.366,2.366Z" transform="translate(-19.622 -427.452)" fill="#e20246"/>
</svg>
